<?xml version="1.0" standalone="no"?>
<!DOCTYPE svg PUBLIC "-//W3C//DTD SVG 20010904//EN"
 "http://www.w3.org/TR/2001/REC-SVG-20010904/DTD/svg10.dtd">
<svg version="1.0" xmlns="http://www.w3.org/2000/svg"
 width="500.000000pt" height="500.000000pt" viewBox="0 0 500.000000 500.000000"
 preserveAspectRatio="xMidYMid meet">
<metadata>
Created by potrace 1.14, written by Peter Selinger 2001-2017
</metadata>
<g transform="translate(0.000000,500.000000) scale(0.100000,-0.100000)"
fill="#000000" stroke="none">
<path d="M2074 4146 c-107 -107 -194 -197 -194 -201 0 -3 34 -39 75 -80 41
-40 75 -77 75 -81 0 -5 -17 -25 -37 -46 l-38 -38 1025 -1025 1025 -1025 200
200 200 200 -79 79 c-84 84 -85 87 -34 130 15 13 28 28 28 32 0 10 -2036 2049
-2046 2049 -3 0 -93 -87 -200 -194z"/>
<path d="M1503 3573 c-106 -107 -193 -198 -193 -202 0 -4 34 -40 75 -80 41
-41 75 -77 75 -81 0 -4 -19 -24 -42 -44 l-41 -38 1026 -1026 1027 -1027 195
195 c107 107 195 199 195 205 0 5 -34 44 -75 85 l-76 76 42 43 c23 23 40 44
38 46 -37 41 -2045 2045 -2049 2044 -3 0 -92 -88 -197 -196z"/>
<path d="M919 2990 l-196 -198 81 -81 81 -81 -43 -42 -42 -43 1018 -1017 c559
-560 1020 -1021 1024 -1024 5 -4 96 81 204 188 167 167 194 199 186 215 -6 10
-40 47 -77 82 l-66 64 23 25 c13 14 32 34 43 43 19 16 -11 47 -1006 1043 -565
564 -1028 1026 -1030 1025 -2 0 -92 -90 -200 -199z"/>
</g>
</svg>
